<svg xmlns="http://www.w3.org/2000/svg" viewBox="0 0 256 256" role="img" aria-label="offshoredevelopment.com logo">
  <defs>
    <linearGradient id="bg" x1="0%" y1="0%" x2="100%" y2="100%">
      <stop offset="0%" stop-color="#0f172a"/>
      <stop offset="100%" stop-color="#1d4ed8"/>
    </linearGradient>
    <linearGradient id="accent" x1="0%" y1="0%" x2="100%" y2="100%">
      <stop offset="0%" stop-color="#67e8f9"/>
      <stop offset="100%" stop-color="#bfdbfe"/>
    </linearGradient>
  </defs>
  <rect width="256" height="256" rx="56" fill="url(#bg)"/>
  <rect x="26" y="26" width="204" height="204" rx="44" fill="none" stroke="rgba(255,255,255,0.12)" stroke-width="2"/>
  <circle cx="184" cy="72" r="20" fill="url(#accent)" opacity="0.95"/>
  <path d="M123 128c0-31-21-53-51-53H44v106h28c30 0 51-22 51-53Zm-28 0c0 16-9 27-24 27h-7V101h7c15 0 24 11 24 27Z" fill="#ffffff"/>
  <path d="M143 128c0-31 21-53 51-53s51 22 51 53-21 53-51 53-51-22-51-53Zm28 0c0 16 9 27 23 27 15 0 24-11 24-27s-9-27-24-27c-14 0-23 11-23 27Z" fill="#ffffff"/>
</svg>
